<?xml version="1.0" encoding="UTF-8"?>
<svg id="Calque_2" data-name="Calque 2" xmlns="http://www.w3.org/2000/svg" viewBox="0 0 452.4 507.8">
  <defs>
    <style>
      .cls-1, .cls-2 {
        fill: #f6cc75;
      }

      .cls-1, .cls-3, .cls-4 {
        stroke: #1f487a;
      }

      .cls-1, .cls-3, .cls-4, .cls-5, .cls-6, .cls-7 {
        stroke-miterlimit: 10;
      }

      .cls-1, .cls-4 {
        stroke-width: 5px;
      }

      .cls-8, .cls-3 {
        fill: #fff;
      }

      .cls-9 {
        fill: #1f487a;
      }

      .cls-10, .cls-6 {
        fill: #0d4263;
      }

      .cls-11 {
        fill: #0d4960;
      }

      .cls-3 {
        stroke-width: 4px;
      }

      .cls-4 {
        fill: none;
      }

      .cls-5 {
        fill: #d6ecfc;
        stroke: #5da29d;
      }

      .cls-5, .cls-6 {
        stroke-width: 3px;
      }

      .cls-6 {
        stroke: #d6ecfc;
      }

      .cls-7 {
        fill: #acc1e5;
        stroke: #f6cc75;
        stroke-width: 6px;
      }
    </style>
  </defs>
  <g id="logo">
    <g id="elipse_de_fond" data-name="elipse de fond">
      <path class="cls-7" d="m424.7,311.2c-33.7,131.2-152.5,214.1-265.3,185.1C46.7,467.4-17.5,337.5,16.2,206.3,49.9,75.1,168.7-7.8,281.5,21.2c42.3,10.9,77.8,35.9,103.8,69.9,43.4,56.7,60.5,138.1,39.5,220.1Z"/>
      <path class="cls-6" d="m421.6,205.5c32.3,136.8-33.4,269.4-146.8,296.1-113.3,26.8-231.4-62.4-263.7-199.2C-21.2,165.6,44.5,33,157.9,6.2c42.5-10,85.7-3.8,124.7,15.2,65.1,31.6,118.8,98.5,139,184Z"/>
      <path class="cls-5" d="m398.4,150c70,118.4,46.9,261.5-51.5,319.7-98.4,58.2-234.9,9.4-304.9-108.9C-28,242.4-5,99.3,93.5,41.1c36.9-21.8,79.2-28.6,121.3-22.3,70.2,10.5,139.9,57.3,183.6,131.2Z"/>
    </g>
    <g id="trace_pingouins" data-name="trace pingouins">
      <path id="blanc_bedon" data-name="blanc bedon" class="cls-8" d="m187.4,349.9h32.1c0,.1-1.6-26.1-1.6-26.1,0,0-38.6-29.9,2.1-128.6,18.1-60-22.8-81.9-30.7-66.4-11.7,22.9-78.2,135.3-1.9,221.1Z"/>
      <path id="pied_arriere" data-name="pied arriere" class="cls-1" d="m218.7,394.1c0,1.6-1.8,2-3.4,2l-60.3.2-19.8-.3c-1.6,0-2.9-1.5-2.7-3.1.7-5.9,6.7-18.5,43.3-21.1,10.6-.7,23.8-.6,40.2.7s3.1.7,3.2,2.1l-.6,19.5Z"/>
      <path id="pied_avant" data-name="pied avant" class="cls-1" d="m176.1,372.8s-18.4.7-21.2,22.5l62,.2c1.1,0,2-.9,2-2l.5-20.4-43.4-.2Z"/>
      <line id="ligne_bas_bedon" data-name="ligne bas bedon" class="cls-3" x1="187.9" y1="352" x2="222.1" y2="351.7"/>
      <path id="ligne_bedon" data-name="ligne bedon" class="cls-4" d="m188.4,370.3v-18.3c0-.8-.4-1.6-1-2.1-9.6-8-83.5-76.8,3.1-224.4"/>
      <path id="couleur_bec" data-name="couleur bec" class="cls-2" d="m178.1,108.6s-22.6-3.1-47.8-1.8c-10.4.6,22.2-29.5,47.9-15.3v17.1Z"/>
      <path id="trace_general" data-name="trace general" class="cls-4" d="m220.7,323.4l-.5,47.8c0,1,.5,1.9,1.4,2.4,7.8,4.6,47.5,26.6,82.2,22.8s2.9-1.9,2.3-3.6l-12.3-40.4c0-.2-.1-.5-.1-.8l-2.4-171.6c0-.2,0-.4,0-.7-1.7-6.5-29-106.7-74.4-100.1-.1,0-.3,0-.4,0-2.3,0-23.3.2-31.6,9.7s-1.8,1.2-2.8.9c-8-2.1-41.6-9.3-55.2,14.8s.8,4.7,3.2,4c8.6-2.5,25.9-5.3,48.7,2.4.5.2,1,.5,1.3.9l9.2,11.9c.7.9,1.8,1.3,2.8,1,8-1.9,41-5.5,28.1,69.5,0,.2-.1.4-.2.7-2.5,6-43,102.7,9.2,134.2.4.2.9.3,1.4.3h18.7c1.8,0,3.1-1.7,2.7-3.4l-8.8-36.5c0-.2,0-.4,0-.6,0-3.6-.6-40.5,16-71.4.2-.4.3-.8.3-1.3v-30.4"/>
      <line id="ligne_bec" data-name="ligne bec" class="cls-4" x1="179.6" y1="111.4" x2="179.6" y2="90.4"/>
      <circle id="oeil" class="cls-9" cx="215.7" cy="101.1" r="5.9"/>
      <ellipse id="iris" class="cls-8" cx="214.1" cy="99.9" rx="2.1" ry="2.3"/>
    </g>
    <g id="banniere">
      <path class="cls-10" d="m452.4,306.6l-398-3.4c-22.3-.4-41.2-16.1-44.8-37.3L.6,213.8l406.2-2.1c19.3,0,35.9,13.3,39.2,31.6l6.3,63.2Z"/>
      <path class="cls-5" d="m446,305.7l-383.7-1.7c-21.5-.3-39.8-15.9-43.4-37.1l-8.8-52,391.6-3.8c18.6-.2,34.7,13.1,37.9,31.5l6.3,63.2Z"/>
      <g>
        <path class="cls-11" d="m67.7,271.7l.3-33h6.4c0,0-.3,33.1-.3,33.1h-6.4Zm5.5,0v-5.7c0,0,14.3.1,14.3.1v5.7c0,0-14.3-.1-14.3-.1Z"/>
        <path class="cls-11" d="m102.9,272.9c-2.1,0-4-.4-5.5-1.1-1.6-.7-2.9-1.7-3.9-3-1-1.2-1.8-2.6-2.3-4.1-.5-1.5-.8-3.1-.7-4.6v-.9c0-1.6.3-3.2.8-4.7.5-1.5,1.3-2.9,2.4-4,1.1-1.2,2.4-2.1,3.9-2.8,1.5-.7,3.3-1,5.3-1,2.7,0,4.9.6,6.7,1.8,1.8,1.2,3.1,2.7,4,4.6.9,1.9,1.3,3.9,1.3,6.1v2.3s-21.8-.2-21.8-.2v-3.8s17.9.2,17.9.2l-2,1.9c0-1.6-.2-2.9-.6-4-.4-1.1-1.1-2-2-2.6-.9-.6-2.1-.9-3.5-.9-1.4,0-2.6.3-3.5.9-1,.6-1.7,1.5-2.2,2.7-.5,1.2-.8,2.6-.8,4.3,0,1.5.2,2.9.7,4.1.5,1.2,1.2,2.1,2.2,2.8,1,.7,2.3,1,3.8,1.1,1.5,0,2.8-.3,3.8-.9,1-.6,1.6-1.4,1.9-2.3h5.8c-.4,1.7-1.1,3.2-2.1,4.5-1,1.3-2.4,2.2-3.9,2.9s-3.4,1-5.4,1Z"/>
        <path class="cls-11" d="m128.9,273c-3.4,0-6-.8-7.9-2.2-1.9-1.5-2.9-3.4-3-6h5.7c0,.9.5,1.7,1.4,2.4.8.7,2.2,1.1,4,1.1,1.5,0,2.7-.2,3.6-.8.9-.5,1.3-1.3,1.4-2.2,0-.8-.3-1.5-1-2-.7-.5-1.8-.8-3.5-1l-2.2-.2c-2.7-.3-4.8-1.1-6.3-2.4-1.5-1.3-2.2-3-2.2-5.1,0-1.7.5-3.1,1.3-4.2.9-1.1,2-2,3.5-2.6,1.5-.6,3.2-.9,5.1-.8,3,0,5.5.7,7.3,2.1,1.9,1.3,2.8,3.3,2.9,5.9h-5.7c0-.9-.5-1.6-1.2-2.2-.8-.6-1.9-.9-3.4-.9-1.3,0-2.4.2-3.1.7-.7.5-1.1,1.2-1.1,2,0,.8.3,1.4.9,1.8.6.4,1.5.7,2.9.9l2.2.2c2.9.3,5.2,1.2,6.8,2.5,1.6,1.3,2.4,3.1,2.4,5.3,0,1.6-.5,3-1.4,4.2-.9,1.2-2.2,2.1-3.8,2.7-1.6.6-3.5,1-5.7.9Z"/>
        <path class="cls-11" d="m155.1,272.5l.3-33.3h6.4c0,0-.3,33.3-.3,33.3h-6.4Zm5.6-10.1v-5.6c0,0,6.5,0,6.5,0,1.3,0,2.4-.2,3.3-.7.9-.5,1.6-1.2,2.1-2.1.5-.9.7-1.9.7-3.1,0-1.2-.2-2.2-.7-3.1-.5-.9-1.1-1.6-2-2.1-.9-.5-2-.8-3.3-.8h-6.4c0,0,0-5.6,0-5.6h5.9c2.8,0,5.1.6,7.1,1.5,1.9.9,3.4,2.2,4.4,3.9,1,1.7,1.5,3.7,1.5,6v.7c0,2.3-.6,4.3-1.6,5.9-1,1.7-2.5,2.9-4.5,3.8-2,.9-4.3,1.3-7.1,1.3h-5.9Z"/>
        <path class="cls-11" d="m182.5,252.9v-4.7s9.8,0,9.8,0v4.7s-9.8,0-9.8,0Zm5.8-7.6c-1.2,0-2.1-.3-2.7-1-.6-.7-.9-1.5-.9-2.5,0-1,.3-1.8.9-2.4s1.5-.9,2.7-.9c1.2,0,2.1.3,2.7,1,.6.6.8,1.5.8,2.5,0,1-.3,1.8-.9,2.5-.6.6-1.5,1-2.7.9Zm-2.6,27.5l.2-24.6h6.3c0,0-.2,24.6-.2,24.6h-6.3Z"/>
        <path class="cls-11" d="m199.3,272.9l.2-24.6h5s-.1,10.6-.1,10.6h-.5c0-2.5.4-4.6,1.1-6.3.7-1.7,1.7-2.9,3-3.8,1.3-.8,3-1.2,4.9-1.2h.3c2.9,0,5.1,1,6.6,2.9,1.5,1.9,2.2,4.7,2.2,8.5v14.1c-.1,0-6.4,0-6.4,0v-14.6c.2-1.5-.3-2.7-1.1-3.7-.9-.9-2-1.4-3.5-1.4-1.5,0-2.8.4-3.7,1.4s-1.4,2.2-1.5,3.8v14.4c-.1,0-6.4,0-6.4,0Z"/>
        <path class="cls-11" d="m238.1,283c-1.2,0-2.4,0-3.6-.2s-2.4-.2-3.4-.4v-5.2c1.1.1,2.3.3,3.5.4,1.2.1,2.4.2,3.5.2,2,0,3.7-.2,4.9-.7,1.3-.5,2.2-1.2,2.8-2.3.6-1,.9-2.4.9-4v-4.8s1.4-3.1,1.4-3.1c-.1,2.3-.6,4.2-1.5,5.8-.9,1.6-2,2.8-3.5,3.6-1.5.8-3.1,1.2-5,1.2-1.7,0-3.2-.3-4.6-1-1.4-.6-2.5-1.5-3.5-2.7-1-1.1-1.7-2.4-2.2-4-.5-1.5-.8-3.1-.8-4.8v-1c0-1.7.3-3.3.9-4.8.6-1.5,1.4-2.8,2.4-3.9,1-1.1,2.3-2,3.7-2.5,1.4-.6,3-.9,4.7-.9,2,0,3.8.5,5.3,1.4,1.5.9,2.6,2.2,3.5,3.8.8,1.7,1.3,3.7,1.3,6.1l-1.1.2v-10.6c.1,0,5.1,0,5.1,0l-.2,21.7c0,3-.6,5.4-1.6,7.2-1,1.8-2.6,3.2-4.8,4s-4.9,1.2-8.2,1.2Zm2-14.9c1.2,0,2.3-.2,3.3-.8,1-.5,1.8-1.3,2.4-2.3.6-1,.9-2.3.9-3.7v-1.6c0-1.4-.3-2.6-.9-3.5-.6-1-1.4-1.7-2.4-2.2-1-.5-2.1-.8-3.3-.8-1.3,0-2.5.3-3.5.9-1,.6-1.8,1.5-2.4,2.6-.6,1.1-.9,2.4-.9,4,0,1.5.3,2.8.8,3.9.6,1.1,1.3,2,2.4,2.6,1,.6,2.2.9,3.5.9Z"/>
        <path class="cls-11" d="m271.3,274.5c-2.2,0-4.1-.4-5.7-1.1-1.7-.7-3-1.7-4.2-2.9-1.1-1.2-2-2.6-2.6-4.1-.6-1.5-.9-3.1-.8-4.7v-1c0-1.7.4-3.3,1-4.8.6-1.5,1.5-2.9,2.7-4,1.2-1.2,2.6-2.1,4.3-2.8,1.7-.7,3.5-1,5.6-1,2.1,0,3.9.4,5.6,1.1,1.7.7,3.1,1.6,4.2,2.8,1.1,1.2,2,2.6,2.6,4.1.6,1.5.9,3.1.9,4.8v1c0,1.6-.3,3.2-.9,4.7-.6,1.5-1.5,2.8-2.6,4-1.2,1.2-2.6,2.1-4.2,2.8-1.7.7-3.6,1-5.7,1Zm0-5.4c1.5,0,2.8-.3,3.9-1,1.1-.7,1.9-1.6,2.4-2.7.6-1.2.8-2.5.9-4,0-1.5-.3-2.8-.8-4-.5-1.2-1.4-2.1-2.4-2.8-1.1-.7-2.3-1-3.8-1.1-1.5,0-2.8.3-3.8,1-1.1.7-1.9,1.6-2.5,2.7-.6,1.2-.9,2.5-.9,4,0,1.5.3,2.8.8,4,.5,1.2,1.3,2.1,2.4,2.8,1,.7,2.3,1,3.9,1.1Z"/>
        <path class="cls-11" d="m298.6,274.7c-2.8,0-5-1-6.6-2.9-1.5-1.9-2.3-4.7-2.2-8.3v-14.3c.1,0,6.4,0,6.4,0v14.8c-.2,1.5.3,2.7,1.1,3.6.8.9,2,1.4,3.4,1.4,1.4,0,2.6-.4,3.6-1.4.9-.9,1.4-2.2,1.4-3.8v-14.5c.1,0,6.4,0,6.4,0l-.2,24.6h-5s.1-10.5.1-10.5h.5c0,2.5-.4,4.5-1,6.2-.6,1.7-1.6,2.9-2.9,3.7-1.3.8-2.9,1.2-4.8,1.2h-.3Z"/>
        <path class="cls-11" d="m317.1,254.2v-4.7s9.8,0,9.8,0v4.7s-9.8,0-9.8,0Zm5.8-7.6c-1.2,0-2.1-.3-2.7-1-.6-.7-.9-1.5-.9-2.5,0-1,.3-1.8.9-2.4.6-.6,1.5-.9,2.7-.9,1.2,0,2.1.3,2.7,1,.6.6.8,1.5.8,2.5,0,1-.3,1.8-.9,2.5-.6.6-1.5,1-2.7.9Zm-2.6,27.5l.2-24.6h6.3c0,0-.2,24.6-.2,24.6h-6.3Z"/>
        <path class="cls-11" d="m333.8,274.3l.2-24.6h5s-.1,10.6-.1,10.6h-.5c0-2.5.4-4.6,1.1-6.3.7-1.7,1.7-2.9,3-3.8,1.3-.8,3-1.2,4.9-1.2h.3c2.9,0,5.1,1,6.6,2.9,1.5,1.9,2.2,4.7,2.2,8.5v14.1c-.1,0-6.4,0-6.4,0v-14.6c.2-1.5-.3-2.7-1.1-3.7s-2-1.4-3.5-1.4c-1.5,0-2.8.4-3.7,1.4-1,.9-1.4,2.2-1.5,3.8v14.4c-.1,0-6.4,0-6.4,0Z"/>
        <path class="cls-11" d="m372.1,275.4c-3.4,0-6-.8-7.9-2.2-1.9-1.5-2.9-3.4-3-6h5.7c0,.9.5,1.7,1.4,2.4.8.7,2.2,1.1,4,1.1,1.5,0,2.7-.2,3.6-.8.9-.5,1.3-1.3,1.4-2.2,0-.8-.3-1.5-1-2-.7-.5-1.8-.8-3.5-1l-2.2-.2c-2.7-.3-4.8-1.1-6.3-2.4-1.5-1.3-2.2-3-2.2-5.1,0-1.7.5-3.1,1.3-4.2.9-1.1,2-2,3.5-2.6,1.5-.6,3.2-.9,5.1-.8,3,0,5.5.7,7.3,2.1,1.9,1.3,2.8,3.3,2.9,5.9h-5.7c0-.9-.5-1.6-1.2-2.2-.8-.6-1.9-.9-3.4-.9-1.3,0-2.4.2-3.1.7-.7.5-1.1,1.2-1.1,2,0,.8.3,1.4.9,1.8.6.4,1.5.7,2.9.9l2.2.2c2.9.3,5.2,1.2,6.8,2.5,1.6,1.3,2.4,3.1,2.4,5.3,0,1.6-.5,3-1.4,4.2-.9,1.2-2.2,2.1-3.8,2.7-1.6.6-3.5,1-5.7.9Z"/>
      </g>
    </g>
  </g>
</svg>