<?xml version="1.0" standalone="no"?>
<!DOCTYPE svg PUBLIC "-//W3C//DTD SVG 20010904//EN"
 "http://www.w3.org/TR/2001/REC-SVG-20010904/DTD/svg10.dtd">
<svg version="1.0" xmlns="http://www.w3.org/2000/svg"
 width="1016.000000pt" height="1016.000000pt" viewBox="0 0 1016.000000 1016.000000"
 preserveAspectRatio="xMidYMid meet">
<metadata>
Created by potrace 1.14, written by Peter Selinger 2001-2017
</metadata>
<g transform="translate(0.000000,1016.000000) scale(0.100000,-0.100000)"
fill="#000000" stroke="none">
<path d="M4309 10146 c-2 -2 -45 -7 -95 -10 -50 -4 -101 -9 -114 -11 -13 -2
-44 -7 -69 -10 -25 -3 -57 -7 -71 -10 -14 -3 -41 -8 -60 -11 -49 -7 -173 -35
-275 -60 -11 -3 -27 -7 -35 -9 -8 -2 -15 -4 -15 -5 0 -1 -7 -3 -15 -5 -8 -2
-50 -14 -92 -28 -42 -13 -80 -22 -83 -19 -3 3 -5 0 -5 -6 0 -7 -3 -11 -7 -10
-33 9 -581 -235 -591 -263 -2 -5 -8 -7 -13 -3 -5 3 -9 0 -9 -6 0 -6 -4 -8 -10
-5 -5 3 -10 1 -10 -4 0 -6 -7 -11 -15 -11 -8 0 -15 -3 -15 -8 0 -4 -18 -15
-40 -25 -22 -9 -40 -20 -40 -24 0 -5 -18 -17 -40 -27 -22 -11 -40 -23 -40 -28
0 -4 -4 -8 -10 -8 -9 0 -107 -66 -120 -80 -3 -3 -30 -23 -60 -45 -30 -22 -56
-43 -58 -47 -2 -5 -8 -8 -13 -8 -5 0 -17 -8 -27 -17 -10 -10 -47 -43 -82 -73
-139 -120 -177 -157 -448 -440 -168 -176 -183 -193 -257 -285 -22 -27 -47 -58
-55 -68 -8 -10 -23 -28 -33 -39 -9 -12 -17 -24 -17 -27 0 -3 -14 -22 -30 -41
-17 -19 -33 -43 -36 -52 -3 -10 -10 -18 -15 -18 -5 0 -9 -7 -9 -15 0 -8 -4
-15 -10 -15 -5 0 -10 -7 -10 -15 0 -8 -4 -15 -8 -15 -5 0 -16 -15 -26 -32 -19
-37 -30 -55 -69 -115 -15 -24 -27 -45 -27 -48 0 -3 -12 -24 -27 -48 -40 -63
-137 -262 -195 -400 -58 -138 -140 -367 -131 -367 3 0 1 -6 -5 -12 -8 -11 -57
-175 -67 -228 -2 -8 -8 -33 -13 -55 -6 -22 -14 -53 -17 -70 -8 -38 -13 -60
-15 -60 -1 0 -3 -13 -5 -30 -3 -26 -9 -57 -21 -115 -2 -8 -6 -35 -10 -60 -3
-25 -8 -54 -11 -65 -2 -11 -6 -36 -8 -55 -2 -19 -4 -35 -5 -35 0 0 -3 -22 -5
-50 -3 -27 -7 -68 -10 -90 -27 -232 -27 -815 0 -1010 4 -29 9 -88 20 -240 7
-106 21 -242 31 -305 3 -19 7 -107 9 -195 6 -232 19 -436 39 -585 2 -19 7 -57
10 -85 8 -66 11 -82 38 -230 6 -33 12 -69 13 -80 2 -11 4 -21 5 -22 2 -2 4
-12 5 -23 1 -11 3 -21 5 -22 2 -3 9 -34 14 -63 2 -11 9 -40 15 -65 6 -25 14
-56 17 -70 3 -14 9 -38 14 -55 5 -16 18 -64 30 -105 24 -83 111 -348 131 -395
7 -16 13 -33 13 -37 1 -3 4 -10 9 -14 4 -4 7 -16 7 -26 0 -10 5 -18 10 -18 6
0 9 -3 8 -7 -3 -10 42 -122 59 -148 7 -11 13 -27 13 -36 0 -9 7 -22 15 -29 8
-7 13 -16 10 -20 -3 -5 2 -15 10 -24 9 -8 16 -19 15 -23 0 -17 153 -306 179
-337 7 -9 10 -16 5 -16 -5 0 -4 -4 2 -8 6 -4 20 -23 30 -42 34 -62 148 -230
156 -230 4 0 8 -5 8 -11 0 -10 136 -196 163 -224 7 -6 21 -24 32 -39 11 -15
36 -44 55 -65 19 -21 48 -53 64 -72 49 -57 156 -167 156 -161 0 4 9 -6 20 -23
11 -16 20 -27 20 -24 0 3 29 -21 64 -55 35 -34 83 -77 106 -95 24 -19 48 -40
54 -46 31 -30 197 -155 205 -155 5 0 11 -4 13 -8 2 -5 44 -36 93 -68 50 -32
92 -62 95 -65 3 -3 12 -9 20 -12 8 -4 29 -15 45 -26 17 -10 48 -29 70 -41 22
-13 58 -34 80 -47 22 -12 47 -26 55 -29 8 -3 49 -24 92 -45 42 -22 83 -39 92
-39 9 0 16 -4 16 -10 0 -5 9 -10 19 -10 11 0 23 -5 26 -10 4 -6 11 -8 16 -5 5
4 9 1 9 -6 0 -7 3 -9 7 -6 3 4 11 3 17 -1 9 -8 122 -55 136 -58 3 0 12 -3 20
-7 74 -29 301 -97 343 -103 16 -2 33 -6 38 -10 5 -3 22 -8 37 -10 15 -3 43 -9
62 -14 39 -10 78 -18 130 -25 19 -3 46 -8 60 -11 14 -3 44 -8 66 -10 23 -2 55
-6 70 -9 62 -11 119 -16 359 -30 50 -3 101 -8 115 -10 51 -9 158 -23 255 -33
33 -3 173 -6 310 -6 227 -1 312 3 430 19 22 3 56 7 75 9 53 7 100 15 155 26
28 5 61 12 75 14 14 2 45 9 70 15 47 12 88 22 105 25 6 1 16 5 23 10 7 4 16 5
19 2 3 -3 18 1 34 10 16 8 29 12 29 10 0 -3 19 2 43 10 23 9 51 17 62 20 11 2
36 10 55 18 19 8 85 33 145 56 125 48 418 187 423 201 2 5 7 9 12 9 4 0 37 16
72 36 106 61 148 83 148 77 0 -4 9 2 21 13 12 10 23 18 25 17 6 -4 99 41 102
50 2 4 12 7 23 7 10 0 19 5 19 10 0 6 6 10 14 10 7 0 19 7 26 15 7 9 15 13 17
11 3 -3 42 19 87 48 44 29 89 55 99 59 9 3 17 11 17 17 0 6 4 9 8 6 5 -3 21 6
37 20 16 14 45 35 65 46 19 12 37 25 40 28 3 3 23 19 45 36 116 85 223 180
370 328 135 136 165 170 284 321 39 50 75 95 81 102 5 7 10 17 10 23 0 5 5 10
10 10 6 0 10 5 10 11 0 6 6 17 12 24 30 33 38 45 38 55 0 5 5 10 10 10 6 0 10
5 10 11 0 6 10 25 23 42 12 17 27 39 32 49 89 154 125 220 125 228 0 6 5 10
10 10 6 0 10 5 10 10 0 6 25 62 55 124 53 110 70 150 75 171 1 6 5 15 10 20 4
6 13 28 20 50 7 22 21 58 31 80 20 45 80 222 83 245 1 9 5 21 10 28 4 6 9 21
12 32 10 48 13 57 25 100 7 25 13 50 15 55 1 6 10 42 19 80 9 39 18 79 20 90
7 35 14 69 19 91 2 12 7 39 10 60 4 22 9 53 12 69 6 36 13 78 19 125 2 19 7
53 9 75 7 53 17 153 21 212 2 26 4 50 5 53 1 3 1 15 0 28 -1 20 3 22 44 22 34
0 46 -4 46 -15 0 -21 10 -19 37 7 18 17 35 22 72 21 l48 -2 -3 37 c-5 57 -13
141 -20 202 -3 30 -7 73 -9 95 -2 22 -6 65 -9 95 -3 30 -8 80 -11 110 -3 30
-7 75 -10 100 -2 25 -7 70 -10 100 -10 99 -17 164 -20 195 -3 28 -11 106 -20
200 -5 62 -15 139 -20 165 -16 84 -71 199 -135 284 -54 72 -54 72 -65 211 -3
33 -7 78 -10 100 -3 22 -7 65 -11 95 -3 30 -7 66 -10 80 -2 14 -7 48 -10 75
-4 28 -8 53 -10 57 -2 3 -7 30 -10 60 -3 29 -9 58 -12 63 -4 6 -7 19 -8 30 0
11 -5 36 -9 55 -12 48 -12 51 -19 85 -3 17 -15 66 -26 110 -12 44 -22 87 -25
96 -9 42 -28 106 -36 124 -5 11 -11 31 -13 45 -12 66 -147 425 -221 585 -39
86 -139 286 -174 348 -67 119 -220 361 -253 402 -5 6 -36 48 -70 95 -33 47
-64 87 -68 90 -3 3 -13 14 -21 26 -21 32 -99 124 -141 166 -20 21 -34 38 -31
38 8 0 -267 269 -327 320 -29 25 -58 50 -64 55 -85 82 -506 375 -537 375 -5 0
-9 5 -9 10 0 6 -5 10 -10 10 -6 0 -50 21 -98 47 -48 26 -89 48 -92 49 -3 0
-45 20 -95 45 -49 24 -92 44 -95 44 -3 1 -22 9 -44 18 -21 9 -40 17 -41 17 -1
0 -20 8 -41 17 -22 9 -47 18 -57 20 -10 2 -31 10 -48 18 -16 9 -29 13 -29 9 0
-4 -6 -2 -13 4 -7 6 -24 13 -37 16 -14 3 -70 19 -124 36 -55 17 -111 33 -125
36 -36 7 -56 12 -58 14 -2 2 -7 4 -13 5 -5 1 -13 4 -17 5 -5 1 -12 2 -16 1 -4
-1 -31 9 -60 23 -69 31 -91 39 -99 38 -5 -1 -8 2 -8 7 0 5 -15 12 -32 16 -36
8 -45 11 -53 15 -3 1 -8 3 -12 4 -5 1 -17 7 -28 12 -16 9 -60 23 -85 28 -3 1
-11 5 -18 10 -7 4 -23 9 -35 11 -12 1 -42 9 -67 18 -70 24 -272 73 -380 93
-105 19 -162 28 -260 39 -25 3 -65 8 -90 11 -52 7 -555 16 -561 10z"/>
</g>
</svg>
